<?xml version="1.0" encoding="utf-8"?>
<!-- Generator: Adobe Illustrator 24.0.1, SVG Export Plug-In . SVG Version: 6.00 Build 0)  -->
<svg version="1.1" id="Ebene_4" xmlns="http://www.w3.org/2000/svg" xmlns:xlink="http://www.w3.org/1999/xlink" x="0px" y="0px"
	 width="490px" height="490px" viewBox="0 0 490 490" style="enable-background:new 0 0 490 490;" xml:space="preserve">
<style type="text/css">
	.st0{fill:#D4E9D1;}
	.st1{fill:none;stroke:#181716;stroke-width:3;}
	.st2{fill:none;stroke:#181716;stroke-width:3;stroke-miterlimit:10;}
	.st3{fill:none;stroke:#181716;stroke-width:3;stroke-linejoin:round;stroke-miterlimit:10;}
	.st4{fill:#278F18;}
</style>
<circle class="st0" cx="245" cy="213.5" r="200"/>
<path class="st1" d="M477.1,109.2c0-23.8-23.4-43.1-52.3-43.1c-10.8,0-20.7,2.7-29.1,7.3c0.1-0.9,0.1-1.8,0.1-2.7
	c0-23.8-23.4-43.1-52.3-43.1c-28.9,0-52.3,19.3-52.3,43.1c0,0.6,0,1.3,0.1,1.9c-3.3-0.6-6.7-1-10.2-1c-24.7,0-44.7,16.5-44.7,36.8
	c0,14.2,9.8,26.5,24.2,32.7c-0.4,2.2-0.7,4.4-0.7,6.7c0,23.1,22.7,41.9,50.8,41.9c11.1,0,21.4-3,29.8-8
	c9.3,12.1,25.6,20.2,44.3,20.2c28.9,0,52.3-19.3,52.3-43.1c0-2.5-0.3-5-0.8-7.5C459.6,146.9,477.1,129.7,477.1,109.2z"/>
<ellipse class="st1" cx="329.5" cy="210.3" rx="14" ry="11.5"/>
<ellipse class="st1" cx="297.6" cy="225.8" rx="10.2" ry="8.4"/>
<g>
	<g>
		<line class="st2" x1="312.2" y1="82.6" x2="339.1" y2="109.6"/>
		<line class="st2" x1="339.1" y1="82.6" x2="312.2" y2="109.6"/>
	</g>
	<g>
		<path class="st2" d="M372.3,85.9c0,40.9-22.7,67.2-63.5,67.2"/>
		<polyline class="st2" points="359.2,95.7 372,82.9 384.8,95.7 		"/>
	</g>
	<circle class="st2" cx="386.5" cy="150.5" r="15.5"/>
</g>
<g>
	<path class="st3" d="M340.1,360.1v47.6c0,0-47.6-8.5-90.2,1.4c-12.5,2.9-31.9,14.2-31.9,14.2l0.7-150.5c0,0,25.6-17.7,69.6-17.7
		s51.8,5,51.8,5v50.8"/>
	<path class="st3" d="M79.8,360.1v47.6c0,0,47.6-8.5,90.2,1.4c12.5,2.9,31.9,14.2,31.9,14.2l-0.7-150.5c0,0-25.6-17.7-69.6-17.7
		s-51.8,5-51.8,5v51.1"/>
	<line class="st2" x1="219.4" y1="272.8" x2="199.5" y2="272.8"/>
	<line class="st2" x1="218.5" y1="423.3" x2="201.5" y2="423.3"/>
	<path class="st4" d="M241.5,294.5c0,0,14.8-10.3,40.2-10.3c25.4,0,29.9,2.9,29.9,2.9v38.9c0,0-27.5-4.9-52.1,0.8
		c-7.2,1.7-18.5,8.2-18.5,8.2L241.5,294.5z"/>
	<path class="st3" d="M85.1,360.1h-7.5c-4.4,0-8-3.6-8-8v-33.2c0-4.4,3.6-8,8-8h7.5c4.4,0,8,3.6,8,8v33.2
		C93.1,356.5,89.5,360.1,85.1,360.1z"/>
	<path class="st3" d="M344.9,360.1h-7.5c-4.4,0-8-3.6-8-8v-33.2c0-4.4,3.6-8,8-8h7.5c4.4,0,8,3.6,8,8v33.2
		C352.9,356.5,349.3,360.1,344.9,360.1z"/>
	<path class="st2" d="M147.8,249c0.2-38.5,6.3-69.7,41.8-81c47.4-15.1,79,16.6,79.4,48c0.2,12.4,0.3,23.4,0.3,33.4"/>
	<path class="st2" d="M169.8,253.6c-2.5-10.8-2.5-19.8-2.5-19.8s22.3-8.3,37.3-23.9l-6.7,19.2c29-6.2,49.8-23.9,49.8-23.9
		s0.8,31,0.4,40.7c-0.2,3.7-0.4,5.6-0.7,7.7"/>
</g>
</svg>
