<?xml version="1.0" encoding="UTF-8"?>
<svg xmlns="http://www.w3.org/2000/svg" xmlns:xlink="http://www.w3.org/1999/xlink" width="400px" height="400px" viewBox="0 0 400 400" version="1.1">
<g id="surface1">
<path style=" stroke:none;fill-rule:nonzero;fill:rgb(0%,0%,0%);fill-opacity:1;" d="M 200.398438 147.601562 C 200.398438 167.839844 200.480469 176 200.558594 165.761719 C 200.71875 155.519531 200.71875 138.960938 200.558594 128.960938 C 200.480469 118.960938 200.398438 127.359375 200.398438 147.601562 Z M 200.398438 147.601562 "/>
<path style=" stroke:none;fill-rule:nonzero;fill:rgb(0%,0%,0%);fill-opacity:1;" d="M 128.398438 145.121094 C 119.121094 147.441406 111.199219 152.960938 107.839844 159.519531 C 104.320312 166.398438 105.199219 176.160156 109.761719 181.839844 C 111.601562 184 111.761719 184.078125 118.800781 183.839844 L 126 183.601562 L 123.199219 182.078125 C 119.679688 180.238281 115.359375 176.238281 113.921875 173.441406 C 112.480469 170.640625 112.480469 163.121094 113.921875 159.679688 C 119.28125 146.800781 140.480469 140.960938 155.039062 148.320312 C 159.121094 150.398438 165.839844 157.039062 166.71875 159.839844 C 167.921875 163.519531 168.800781 161.359375 168.800781 154.878906 L 168.800781 148.238281 L 164.238281 146.960938 C 152.878906 143.839844 136.800781 143.039062 128.398438 145.121094 Z M 128.398438 145.121094 "/>
<path style=" stroke:none;fill-rule:nonzero;fill:rgb(0%,0%,0%);fill-opacity:1;" d="M 249.28125 144.800781 C 239.921875 147.199219 230 154.398438 224.320312 162.960938 C 221.28125 167.601562 217.359375 176.71875 216.558594 181.359375 L 216.078125 184 L 224.398438 184 L 226.238281 176.960938 C 229.839844 162.800781 237.039062 152.71875 246.960938 147.839844 C 251.761719 145.519531 252.960938 145.28125 259.121094 145.28125 C 270.238281 145.359375 278.640625 149.761719 284 158.160156 C 285.199219 160 286.398438 161.359375 286.71875 161.039062 C 287.601562 160.160156 287.28125 148.960938 286.320312 148.320312 C 285.839844 148.078125 282.878906 147.121094 279.679688 146.238281 C 273.121094 144.480469 254.238281 143.601562 249.28125 144.800781 Z M 249.28125 144.800781 "/>
<path style=" stroke:none;fill-rule:nonzero;fill:rgb(0%,0%,0%);fill-opacity:1;" d="M 248.320312 178.078125 C 246.558594 178.71875 244.078125 180.238281 242.960938 181.441406 L 240.878906 183.601562 L 259.441406 183.761719 L 278 183.921875 L 274.398438 182.320312 C 263.839844 177.601562 254 176 248.320312 178.078125 Z M 248.320312 178.078125 "/>
<path style=" stroke:none;fill-rule:nonzero;fill:rgb(0%,0%,0%);fill-opacity:1;" d="M 82.238281 192.078125 C 79.679688 193.519531 80.480469 196 84 197.359375 C 85.761719 198.078125 87.199219 199.121094 87.199219 199.679688 C 87.199219 201.039062 84.480469 201.839844 82.320312 201.199219 C 81.121094 200.800781 80.800781 200.878906 81.121094 201.519531 C 82.078125 202.960938 87.039062 202.558594 87.921875 200.960938 C 88.960938 198.960938 87.839844 197.441406 84.640625 196.320312 C 80.960938 195.121094 81.199219 193.28125 85.199219 192.800781 C 88.078125 192.398438 88.160156 192.320312 86.398438 191.761719 C 83.921875 191.039062 83.921875 191.039062 82.238281 192.078125 Z M 82.238281 192.078125 "/>
<path style=" stroke:none;fill-rule:nonzero;fill:rgb(0%,0%,0%);fill-opacity:1;" d="M 96.71875 196.480469 C 95.359375 199.359375 94.480469 201.921875 94.71875 202.160156 C 94.878906 202.398438 95.441406 201.761719 96 200.878906 C 96.640625 199.679688 97.601562 199.199219 99.601562 199.199219 C 101.601562 199.199219 102.558594 199.679688 103.199219 200.878906 C 103.761719 201.761719 104.320312 202.398438 104.480469 202.160156 C 104.878906 201.761719 100.160156 191.199219 99.519531 191.199219 C 99.28125 191.199219 98 193.601562 96.71875 196.480469 Z M 101.199219 196.558594 C 101.601562 198.160156 101.441406 198.398438 99.679688 198.398438 C 97.441406 198.398438 97.121094 197.601562 98.480469 195.039062 C 99.441406 193.28125 100.320312 193.761719 101.199219 196.558594 Z M 101.199219 196.558594 "/>
<path style=" stroke:none;fill-rule:nonzero;fill:rgb(0%,0%,0%);fill-opacity:1;" d="M 112 196.800781 L 112 202.398438 L 115.441406 202.398438 C 117.359375 202.398438 119.28125 202 119.839844 201.441406 C 120.960938 200.320312 121.121094 197.601562 120 197.601562 C 119.601562 197.601562 119.441406 196.558594 119.679688 195.28125 C 120.238281 192.558594 118.480469 191.199219 114.480469 191.199219 L 112 191.199219 Z M 118.800781 194.398438 C 118.800781 195.199219 117.839844 195.679688 115.839844 195.839844 C 113.199219 196.078125 112.800781 195.839844 112.800781 194.398438 C 112.800781 192.960938 113.199219 192.71875 115.839844 192.960938 C 117.839844 193.121094 118.800781 193.601562 118.800781 194.398438 Z M 119.039062 199.359375 C 118.878906 200.878906 118.238281 201.28125 115.839844 201.441406 C 113.039062 201.679688 112.800781 201.519531 112.800781 199.679688 C 112.800781 197.761719 113.121094 197.601562 116.078125 197.601562 C 118.960938 197.601562 119.28125 197.761719 119.039062 199.359375 Z M 119.039062 199.359375 "/>
<path style=" stroke:none;fill-rule:nonzero;fill:rgb(0%,0%,0%);fill-opacity:1;" d="M 127.199219 191.839844 C 127.199219 192.480469 128 194 128.878906 195.359375 C 129.839844 196.71875 130.878906 198.878906 131.199219 200.320312 C 131.761719 202.398438 131.839844 202.480469 131.921875 200.878906 C 132 199.839844 132.960938 197.359375 134.078125 195.441406 C 135.199219 193.441406 136 191.679688 135.761719 191.519531 C 135.519531 191.28125 134.558594 192.558594 133.519531 194.320312 L 131.679688 197.601562 L 129.441406 194.160156 C 128.238281 192.320312 127.199219 191.28125 127.199219 191.839844 Z M 127.199219 191.839844 "/>
<path style=" stroke:none;fill-rule:nonzero;fill:rgb(0%,0%,0%);fill-opacity:1;" d="M 144.078125 196.480469 C 141.359375 202.398438 141.28125 202.398438 142.320312 202.398438 C 142.71875 202.398438 143.199219 201.679688 143.441406 200.800781 C 144 198.480469 149.199219 198.558594 150.398438 200.878906 C 150.960938 201.761719 151.519531 202.320312 151.761719 202.078125 C 152.238281 201.679688 147.601562 191.199219 146.878906 191.199219 C 146.71875 191.199219 145.441406 193.601562 144.078125 196.480469 Z M 148.398438 196 L 149.679688 198.398438 L 147.199219 198.398438 C 145.921875 198.398438 144.800781 198.238281 144.800781 198 C 144.800781 197.441406 146.640625 193.601562 146.878906 193.601562 C 147.039062 193.601562 147.679688 194.640625 148.398438 196 Z M 148.398438 196 "/>
<path style=" stroke:none;fill-rule:nonzero;fill:rgb(0%,0%,0%);fill-opacity:1;" d="M 159.679688 192.238281 C 157.441406 193.839844 158.398438 196.238281 161.601562 197.28125 C 164.640625 198.238281 165.761719 200.480469 163.601562 201.28125 C 162.878906 201.601562 161.359375 201.359375 160.238281 200.878906 C 158.71875 200.160156 158.320312 200.160156 158.558594 200.960938 C 158.800781 201.519531 160.160156 202.078125 161.761719 202.238281 C 167.28125 202.71875 167.921875 198 162.480469 196.480469 C 160.878906 196 160 195.28125 160 194.320312 C 160 193.121094 160.640625 192.800781 163.039062 192.800781 C 165.199219 192.800781 165.679688 192.558594 164.800781 192 C 163.121094 190.960938 161.359375 191.039062 159.679688 192.238281 Z M 159.679688 192.238281 "/>
<path style=" stroke:none;fill-rule:nonzero;fill:rgb(0%,0%,0%);fill-opacity:1;" d="M 174.558594 196.800781 C 173.199219 199.839844 172.398438 202.398438 172.800781 202.398438 C 173.199219 202.398438 173.761719 201.679688 174 200.800781 C 174.398438 199.601562 175.199219 199.199219 177.28125 199.199219 C 179.121094 199.199219 180.320312 199.679688 180.960938 200.800781 C 183.039062 204.078125 183.039062 202.238281 181.039062 197.761719 C 177.761719 190.398438 177.441406 190.320312 174.558594 196.800781 Z M 178.960938 196 C 179.839844 198.320312 179.761719 198.398438 177.519531 198.398438 C 174.878906 198.398438 174.878906 198.398438 176.160156 195.601562 C 177.359375 193.039062 177.839844 193.039062 178.960938 196 Z M 178.960938 196 "/>
<path style=" stroke:none;fill-rule:nonzero;fill:rgb(0%,0%,0%);fill-opacity:1;" d="M 190.800781 193.199219 C 188.398438 195.519531 188.238281 198.640625 190.398438 200.800781 C 192.078125 202.480469 195.679688 202.878906 197.601562 201.519531 C 198.480469 200.960938 198 200.878906 195.921875 201.199219 C 192.480469 201.839844 190.398438 200.238281 190.398438 196.878906 C 190.398438 193.761719 192.160156 192.480469 195.839844 193.039062 C 198.558594 193.519531 198.640625 193.441406 197.28125 192.398438 C 195.039062 190.71875 192.960938 190.960938 190.800781 193.199219 Z M 190.800781 193.199219 "/>
<path style=" stroke:none;fill-rule:nonzero;fill:rgb(0%,0%,0%);fill-opacity:1;" d="M 213.601562 193.519531 C 213.601562 195.839844 213.441406 196 210.398438 196 C 207.519531 196 207.199219 195.761719 207.199219 194 C 207.199219 192.878906 206.878906 192 206.398438 192 C 205.921875 192 205.601562 194.238281 205.601562 197.199219 C 205.601562 200.160156 205.921875 202.398438 206.398438 202.398438 C 206.878906 202.398438 207.199219 201.28125 207.199219 200 C 207.199219 197.761719 207.359375 197.601562 210.398438 197.601562 C 213.441406 197.601562 213.601562 197.761719 213.601562 200 C 213.601562 201.28125 214 202.398438 214.398438 202.398438 C 214.878906 202.398438 215.199219 200.160156 215.199219 197.28125 C 215.199219 194.398438 214.878906 191.839844 214.398438 191.601562 C 213.921875 191.28125 213.601562 192.160156 213.601562 193.519531 Z M 213.601562 193.519531 "/>
<path style=" stroke:none;fill-rule:nonzero;fill:rgb(0%,0%,0%);fill-opacity:1;" d="M 244 192.238281 C 238.71875 194.878906 240.800781 202 246.878906 202 C 249.921875 202 250 201.921875 250.078125 199.199219 C 250.160156 197.199219 250.160156 197.039062 249.839844 198.558594 C 249.121094 203.121094 242.398438 201.601562 242.398438 196.878906 C 242.398438 193.839844 244.160156 192.558594 247.601562 192.960938 C 250.71875 193.28125 251.441406 192.480469 248.640625 191.679688 C 246.238281 191.039062 246.320312 191.039062 244 192.238281 Z M 244 192.238281 "/>
<path style=" stroke:none;fill-rule:nonzero;fill:rgb(0%,0%,0%);fill-opacity:1;" d="M 259.441406 196.800781 C 259.441406 200.078125 259.601562 201.601562 259.761719 200.160156 C 260.078125 197.679688 260.238281 197.601562 263.601562 197.601562 C 266.960938 197.601562 267.121094 197.679688 267.441406 200.160156 C 267.601562 201.601562 267.761719 200.078125 267.761719 196.800781 C 267.761719 193.519531 267.601562 192 267.441406 193.359375 C 267.121094 195.921875 266.960938 196 263.601562 196 C 260.238281 196 260.078125 195.921875 259.761719 193.359375 C 259.601562 192 259.441406 193.519531 259.441406 196.800781 Z M 259.441406 196.800781 "/>
<path style=" stroke:none;fill-rule:nonzero;fill:rgb(0%,0%,0%);fill-opacity:1;" d="M 278.398438 192.238281 C 275.359375 193.761719 274.558594 197.121094 276.558594 199.839844 C 279.761719 204.078125 286.398438 202.480469 286.398438 197.359375 C 286.398438 194.320312 285.839844 193.359375 283.441406 192.078125 C 281.28125 190.960938 280.878906 190.960938 278.398438 192.238281 Z M 284.398438 194.078125 C 286.238281 196 285.601562 199.359375 283.121094 200.71875 C 281.199219 201.761719 280.800781 201.761719 278.878906 200.558594 C 276.640625 199.039062 276 195.519531 277.761719 193.761719 C 279.121094 192.398438 282.878906 192.558594 284.398438 194.078125 Z M 284.398438 194.078125 "/>
<path style=" stroke:none;fill-rule:nonzero;fill:rgb(0%,0%,0%);fill-opacity:1;" d="M 294.878906 192.238281 C 292.640625 193.839844 293.601562 196.238281 296.800781 197.28125 C 299.839844 198.238281 300.960938 200.480469 298.800781 201.28125 C 298.078125 201.601562 296.558594 201.359375 295.441406 200.878906 C 293.921875 200.160156 293.519531 200.160156 293.761719 200.960938 C 294 201.519531 295.359375 202.078125 296.960938 202.238281 C 302.480469 202.71875 303.121094 198 297.679688 196.480469 C 296.078125 196 295.199219 195.28125 295.199219 194.320312 C 295.199219 193.121094 295.839844 192.800781 298.238281 192.800781 C 300.398438 192.800781 300.878906 192.558594 300 192 C 298.320312 190.960938 296.558594 191.039062 294.878906 192.238281 Z M 294.878906 192.238281 "/>
<path style=" stroke:none;fill-rule:nonzero;fill:rgb(0%,0%,0%);fill-opacity:1;" d="M 309.039062 196.800781 C 309.039062 200.078125 309.199219 201.601562 309.359375 200.160156 C 309.679688 197.679688 309.839844 197.601562 313.199219 197.601562 C 316.558594 197.601562 316.71875 197.679688 317.039062 200.160156 C 317.199219 201.601562 317.359375 200.078125 317.359375 196.800781 C 317.359375 193.519531 317.199219 192 317.039062 193.359375 C 316.71875 195.921875 316.558594 196 313.199219 196 C 309.839844 196 309.679688 195.921875 309.359375 193.359375 C 309.199219 192 309.039062 193.519531 309.039062 196.800781 Z M 309.039062 196.800781 "/>
<path style=" stroke:none;fill-rule:nonzero;fill:rgb(0%,0%,0%);fill-opacity:1;" d="M 223.199219 197.199219 C 223.199219 200.160156 223.519531 202.398438 224 202.398438 C 224.480469 202.398438 224.800781 200.160156 224.800781 197.199219 C 224.800781 194.238281 224.480469 192 224 192 C 223.519531 192 223.199219 194.238281 223.199219 197.199219 Z M 223.199219 197.199219 "/>
<path style=" stroke:none;fill-rule:nonzero;fill:rgb(0%,0%,0%);fill-opacity:1;" d="M 165.441406 212.558594 C 172.398438 222.558594 167.519531 235.519531 154.398438 241.839844 C 149.28125 244.320312 136.71875 244.238281 130.398438 241.761719 C 124.078125 239.28125 115.441406 232.480469 110.878906 226.398438 C 108.71875 223.519531 106.71875 221.039062 106.320312 220.960938 C 105.921875 220.800781 105.601562 223.519531 105.601562 227.121094 C 105.601562 233.441406 105.679688 233.519531 108.238281 235.441406 C 122.878906 246.480469 142.398438 248.800781 158.160156 241.441406 C 163.761719 238.878906 171.441406 230.960938 173.039062 226.078125 C 174.558594 221.679688 174.800781 215.601562 173.601562 212.480469 C 172.878906 210.558594 172.398438 210.398438 168.398438 210.398438 L 163.921875 210.398438 Z M 165.441406 212.558594 "/>
<path style=" stroke:none;fill-rule:nonzero;fill:rgb(0%,0%,0%);fill-opacity:1;" d="M 199.921875 242.800781 C 199.679688 260.800781 199.601562 275.761719 199.761719 275.921875 C 200.640625 277.121094 200.800781 272 200.640625 242.71875 L 200.398438 210 Z M 199.921875 242.800781 "/>
<path style=" stroke:none;fill-rule:nonzero;fill:rgb(0%,0%,0%);fill-opacity:1;" d="M 217.921875 212.960938 C 218.878906 218.238281 224.078125 227.28125 229.28125 232.71875 C 237.601562 241.601562 246.800781 245.601562 258.878906 245.601562 C 271.761719 245.601562 282.71875 240.078125 289.679688 229.921875 C 291.839844 226.71875 292 226.078125 292 218.480469 L 292 210.398438 L 283.199219 210.398438 L 283.199219 219.199219 C 283.199219 229.199219 282.320312 231.761719 277.121094 237.121094 C 272.320312 242.078125 266.480469 244.398438 258.800781 244.398438 C 253.359375 244.398438 251.679688 244.078125 247.601562 242.078125 C 238.398438 237.601562 229.519531 225.761719 226.398438 213.761719 L 225.519531 210.398438 L 217.441406 210.398438 Z M 217.921875 212.960938 "/>
</g>
</svg>
