<?xml version="1.0" standalone="no"?>
<!DOCTYPE svg PUBLIC "-//W3C//DTD SVG 20010904//EN"
 "http://www.w3.org/TR/2001/REC-SVG-20010904/DTD/svg10.dtd">
<svg version="1.0" xmlns="http://www.w3.org/2000/svg"
 width="500.000000pt" height="500.000000pt" viewBox="0 0 500.000000 500.000000"
 preserveAspectRatio="xMidYMid meet">

<g transform="translate(0.000000,500.000000) scale(0.100000,-0.100000)"
fill="#000000" stroke="none">
<path d="M2505 3155 c0 -253 1 -355 2 -227 2 128 2 335 0 460 -1 125 -2 20 -2
-233z"/>
<path d="M1605 3186 c-116 -29 -215 -98 -257 -180 -44 -86 -33 -208 24 -279
23 -27 25 -28 113 -25 l90 3 -35 19 c-44 23 -98 73 -116 108 -18 35 -18 129 0
172 67 161 332 234 514 142 51 -26 135 -109 146 -144 15 -46 26 -19 26 62 l0
83 -57 16 c-142 39 -343 49 -448 23z"/>
<path d="M3116 3190 c-117 -30 -241 -120 -312 -227 -38 -58 -87 -172 -97 -230
l-6 -33 52 0 52 0 23 88 c45 177 135 303 259 364 60 29 75 32 152 32 139 -1
244 -56 311 -161 15 -23 30 -40 34 -36 11 11 7 151 -5 159 -6 3 -43 15 -83 26
-82 22 -318 33 -380 18z"/>
<path d="M3104 2774 c-22 -8 -53 -27 -67 -42 l-26 -27 232 -2 232 -2 -45 20
c-132 59 -255 79 -326 53z"/>
<path d="M1028 2599 c-32 -18 -22 -49 22 -66 22 -9 40 -22 40 -29 0 -17 -34
-27 -61 -19 -15 5 -19 4 -15 -4 12 -18 74 -13 85 7 13 25 -1 44 -41 58 -46 15
-43 38 7 44 36 5 37 6 15 13 -31 9 -31 9 -52 -4z"/>
<path d="M1209 2544 c-17 -36 -28 -68 -25 -71 2 -3 9 5 16 16 8 15 20 21 45
21 25 0 37 -6 45 -21 7 -11 14 -19 16 -16 5 5 -54 137 -62 137 -3 0 -19 -30
-35 -66z m56 -1 c5 -20 3 -23 -19 -23 -28 0 -32 10 -15 42 12 22 23 16 34 -19z"/>
<path d="M1400 2540 l0 -70 43 0 c24 0 48 5 55 12 14 14 16 48 2 48 -5 0 -7
13 -4 29 7 34 -15 51 -65 51 l-31 0 0 -70z m85 30 c0 -10 -12 -16 -37 -18 -33
-3 -38 0 -38 18 0 18 5 21 38 18 25 -2 37 -8 37 -18z m3 -62 c-2 -19 -10 -24
-40 -26 -35 -3 -38 -1 -38 22 0 24 4 26 41 26 36 0 40 -2 37 -22z"/>
<path d="M1590 2602 c0 -8 10 -27 21 -44 12 -17 25 -44 29 -62 7 -26 8 -27 9
-7 1 13 13 44 27 68 14 25 24 47 21 49 -3 3 -15 -13 -28 -35 l-23 -41 -28 43
c-15 23 -28 36 -28 29z"/>
<path d="M1801 2544 c-34 -74 -35 -74 -22 -74 5 0 11 9 14 20 7 29 72 28 87
-1 7 -11 14 -18 17 -15 6 5 -52 136 -61 136 -2 0 -18 -30 -35 -66z m54 6 l16
-30 -31 0 c-16 0 -30 2 -30 5 0 7 23 55 26 55 2 0 10 -13 19 -30z"/>
<path d="M1996 2597 c-28 -20 -16 -50 24 -63 38 -12 52 -40 25 -50 -9 -4 -28
-1 -42 5 -19 9 -24 9 -21 -1 3 -7 20 -14 40 -16 69 -6 77 53 9 72 -20 6 -31
15 -31 27 0 15 8 19 38 19 27 0 33 3 22 10 -21 13 -43 12 -64 -3z"/>
<path d="M2182 2540 c-17 -38 -27 -70 -22 -70 5 0 12 9 15 20 5 15 15 20 41
20 23 0 38 -6 46 -20 26 -41 26 -18 1 38 -41 92 -45 93 -81 12z m55 10 c11
-29 10 -30 -18 -30 -33 0 -33 0 -17 35 15 32 21 32 35 -5z"/>
<path d="M2385 2585 c-30 -29 -32 -68 -5 -95 21 -21 66 -26 90 -9 11 7 5 8
-21 4 -43 -8 -69 12 -69 54 0 39 22 55 68 48 34 -6 35 -5 18 8 -28 21 -54 18
-81 -10z"/>
<path d="M2670 2581 c0 -29 -2 -31 -40 -31 -36 0 -40 3 -40 25 0 14 -4 25 -10
25 -6 0 -10 -28 -10 -65 0 -37 4 -65 10 -65 6 0 10 14 10 30 0 28 2 30 40 30
38 0 40 -2 40 -30 0 -16 5 -30 10 -30 6 0 10 28 10 64 0 36 -4 68 -10 71 -6 4
-10 -7 -10 -24z"/>
<path d="M3050 2597 c-66 -33 -40 -122 36 -122 38 0 39 1 40 35 1 25 1 27 -3
8 -9 -57 -93 -38 -93 21 0 38 22 54 65 49 39 -4 48 6 13 16 -30 8 -29 8 -58
-7z"/>
<path d="M3243 2540 c0 -41 2 -60 4 -42 4 31 6 32 48 32 42 0 44 -1 48 -32 2
-18 4 1 4 42 0 41 -2 60 -4 43 -4 -32 -6 -33 -48 -33 -42 0 -44 1 -48 33 -2
17 -4 -2 -4 -43z"/>
<path d="M3480 2597 c-38 -19 -48 -61 -23 -95 40 -53 123 -33 123 31 0 38 -7
50 -37 66 -27 14 -32 14 -63 -2z m75 -23 c23 -24 15 -66 -16 -83 -24 -13 -29
-13 -53 2 -28 19 -36 63 -14 85 17 17 64 15 83 -4z"/>
<path d="M3686 2597 c-28 -20 -16 -50 24 -63 38 -12 52 -40 25 -50 -9 -4 -28
-1 -42 5 -19 9 -24 9 -21 -1 3 -7 20 -14 40 -16 69 -6 77 53 9 72 -20 6 -31
15 -31 27 0 15 8 19 38 19 27 0 33 3 22 10 -21 13 -43 12 -64 -3z"/>
<path d="M3863 2540 c0 -41 2 -60 4 -42 4 31 6 32 48 32 42 0 44 -1 48 -32 2
-18 4 1 4 42 0 41 -2 60 -4 43 -4 -32 -6 -33 -48 -33 -42 0 -44 1 -48 33 -2
17 -4 -2 -4 -43z"/>
<path d="M2790 2535 c0 -37 4 -65 10 -65 6 0 10 28 10 65 0 37 -4 65 -10 65
-6 0 -10 -28 -10 -65z"/>
<path d="M2068 2343 c87 -125 26 -287 -138 -366 -64 -31 -221 -30 -300 1 -79
31 -187 116 -244 192 -27 36 -52 67 -57 68 -5 2 -9 -32 -9 -77 0 -79 1 -80 33
-104 183 -138 427 -167 624 -75 70 32 166 131 186 192 19 55 22 131 7 170 -9
24 -15 26 -65 26 l-56 0 19 -27z"/>
<path d="M2499 1965 c-3 -225 -4 -412 -2 -414 11 -15 13 49 11 415 l-3 409 -6
-410z"/>
<path d="M2724 2338 c12 -66 77 -179 142 -247 104 -111 219 -161 370 -161 161
0 298 69 385 196 27 40 29 48 29 143 l0 101 -55 0 -55 0 0 -110 c0 -125 -11
-157 -76 -224 -60 -62 -133 -91 -229 -91 -68 0 -89 4 -140 29 -115 56 -226
204 -265 354 l-11 42 -51 0 -50 0 6 -32z"/>
</g>
</svg>
